<mxfile host="Electron" agent="Mozilla/5.0 (Windows NT 10.0; Win64; x64) AppleWebKit/537.36 (KHTML, like Gecko) draw.io/26.2.2 Chrome/134.0.6998.178 Electron/35.1.2 Safari/537.36" version="26.2.2">
  <diagram name="ページ1" id="Do2R8YbBjsIG0Oqwl3gb">
    <mxGraphModel dx="2417" dy="472" grid="1" gridSize="10" guides="1" tooltips="1" connect="1" arrows="1" fold="1" page="1" pageScale="1" pageWidth="827" pageHeight="1169" math="1" shadow="0">
      <root>
        <mxCell id="0" />
        <mxCell id="1" parent="0" />
        <mxCell id="6HOsOEwYccZ2VXURbwLA-26" style="edgeStyle=orthogonalEdgeStyle;shape=connector;rounded=0;orthogonalLoop=1;jettySize=auto;html=1;exitX=0.5;exitY=1;exitDx=0;exitDy=0;exitPerimeter=0;entryX=0.5;entryY=0;entryDx=0;entryDy=0;strokeColor=default;align=center;verticalAlign=middle;fontFamily=Helvetica;fontSize=11;fontColor=default;labelBackgroundColor=default;endArrow=open;endFill=0;" parent="1" source="6HOsOEwYccZ2VXURbwLA-2" target="6HOsOEwYccZ2VXURbwLA-7" edge="1">
          <mxGeometry relative="1" as="geometry" />
        </mxCell>
        <mxCell id="6HOsOEwYccZ2VXURbwLA-2" value="開始" style="strokeWidth=1;html=1;shape=mxgraph.flowchart.terminator;whiteSpace=wrap;fontFamily=Lucida Console;fontSize=12;" parent="1" vertex="1">
          <mxGeometry x="-1380" y="130" width="40" height="20" as="geometry" />
        </mxCell>
        <mxCell id="6HOsOEwYccZ2VXURbwLA-19" value="" style="edgeStyle=orthogonalEdgeStyle;rounded=0;orthogonalLoop=1;jettySize=auto;exitX=0.5;exitY=1;exitDx=0;exitDy=0;entryX=0.5;entryY=0;entryDx=0;entryDy=0;endArrow=open;endFill=0;fontFamily=Lucida Console;fontSize=12;" parent="1" source="6HOsOEwYccZ2VXURbwLA-7" target="6HOsOEwYccZ2VXURbwLA-11" edge="1">
          <mxGeometry relative="1" as="geometry" />
        </mxCell>
        <mxCell id="6HOsOEwYccZ2VXURbwLA-7" value="&lt;font face=&quot;Lucida Console&quot;&gt;&amp;nbsp;&amp;nbsp;整数型の変数&lt;/font&gt;&lt;div&gt;&lt;font face=&quot;Lucida Console&quot;&gt;&amp;nbsp; \(m, n\)&lt;/font&gt;&lt;/div&gt;" style="shape=hexagon;perimeter=hexagonPerimeter2;whiteSpace=wrap;html=1;fixedSize=1;align=left;size=10;fontSize=12;" parent="1" vertex="1">
          <mxGeometry x="-1410" y="160" width="100" height="40" as="geometry" />
        </mxCell>
        <mxCell id="6HOsOEwYccZ2VXURbwLA-11" value="\(m\leftarrow 3\)&lt;div&gt;\(n \leftarrow 7\)&lt;/div&gt;" style="rounded=0;whiteSpace=wrap;html=1;fontFamily=Lucida Console;fontSize=12;" parent="1" vertex="1">
          <mxGeometry x="-1400" y="210" width="80" height="30" as="geometry" />
        </mxCell>
        <mxCell id="6HOsOEwYccZ2VXURbwLA-22" value="T" style="edgeStyle=orthogonalEdgeStyle;shape=connector;rounded=0;orthogonalLoop=1;jettySize=auto;html=1;exitX=0.5;exitY=1;exitDx=0;exitDy=0;exitPerimeter=0;entryX=0.5;entryY=0;entryDx=0;entryDy=0;strokeColor=default;align=center;verticalAlign=middle;fontFamily=Lucida Console;fontSize=12;fontColor=default;labelBackgroundColor=default;endArrow=open;endFill=0;" parent="1" source="6HOsOEwYccZ2VXURbwLA-13" target="6HOsOEwYccZ2VXURbwLA-15" edge="1">
          <mxGeometry y="-10" relative="1" as="geometry">
            <mxPoint as="offset" />
          </mxGeometry>
        </mxCell>
        <mxCell id="6HOsOEwYccZ2VXURbwLA-13" value="\(n &amp;gt; 0\)" style="strokeWidth=1;html=1;shape=mxgraph.flowchart.decision;whiteSpace=wrap;fontFamily=Lucida Console;fontSize=12;" parent="1" vertex="1">
          <mxGeometry x="-1400" y="260" width="80" height="40" as="geometry" />
        </mxCell>
        <mxCell id="6HOsOEwYccZ2VXURbwLA-23" style="edgeStyle=orthogonalEdgeStyle;shape=connector;rounded=0;orthogonalLoop=1;jettySize=auto;html=1;exitX=0.5;exitY=1;exitDx=0;exitDy=0;entryX=0.5;entryY=0;entryDx=0;entryDy=0;strokeColor=default;align=center;verticalAlign=middle;fontFamily=Helvetica;fontSize=11;fontColor=default;labelBackgroundColor=default;endArrow=open;endFill=0;" parent="1" source="6HOsOEwYccZ2VXURbwLA-15" target="6HOsOEwYccZ2VXURbwLA-16" edge="1">
          <mxGeometry relative="1" as="geometry" />
        </mxCell>
        <mxCell id="6HOsOEwYccZ2VXURbwLA-15" value="\(m\leftarrow m + 1\)" style="rounded=0;whiteSpace=wrap;html=1;fontFamily=Lucida Console;fontSize=12;" parent="1" vertex="1">
          <mxGeometry x="-1400" y="320" width="80" height="20" as="geometry" />
        </mxCell>
        <mxCell id="6HOsOEwYccZ2VXURbwLA-24" style="edgeStyle=orthogonalEdgeStyle;shape=connector;rounded=0;orthogonalLoop=1;jettySize=auto;html=1;exitX=0.5;exitY=1;exitDx=0;exitDy=0;strokeColor=default;align=center;verticalAlign=middle;fontFamily=Helvetica;fontSize=11;fontColor=default;labelBackgroundColor=default;endArrow=open;endFill=0;" parent="1" source="6HOsOEwYccZ2VXURbwLA-16" edge="1">
          <mxGeometry relative="1" as="geometry">
            <mxPoint x="-1360" y="250" as="targetPoint" />
            <mxPoint x="-1360" y="380" as="sourcePoint" />
            <Array as="points">
              <mxPoint x="-1360" y="380" />
              <mxPoint x="-1430" y="380" />
              <mxPoint x="-1430" y="250" />
              <mxPoint x="-1360" y="250" />
            </Array>
          </mxGeometry>
        </mxCell>
        <mxCell id="6HOsOEwYccZ2VXURbwLA-16" value="\(n\leftarrow n - 1\)" style="rounded=0;whiteSpace=wrap;html=1;fontFamily=Lucida Console;fontSize=12;" parent="1" vertex="1">
          <mxGeometry x="-1400" y="350" width="80" height="20" as="geometry" />
        </mxCell>
        <mxCell id="6HOsOEwYccZ2VXURbwLA-20" style="edgeStyle=orthogonalEdgeStyle;shape=connector;rounded=0;orthogonalLoop=1;jettySize=auto;html=1;exitX=0.5;exitY=1;exitDx=0;exitDy=0;entryX=0.5;entryY=0;entryDx=0;entryDy=0;entryPerimeter=0;strokeColor=default;align=center;verticalAlign=middle;fontFamily=Helvetica;fontSize=11;fontColor=default;labelBackgroundColor=default;endArrow=open;endFill=0;" parent="1" source="6HOsOEwYccZ2VXURbwLA-11" target="6HOsOEwYccZ2VXURbwLA-13" edge="1">
          <mxGeometry relative="1" as="geometry" />
        </mxCell>
        <mxCell id="6HOsOEwYccZ2VXURbwLA-25" value="終了" style="strokeWidth=1;html=1;shape=mxgraph.flowchart.terminator;whiteSpace=wrap;fontFamily=Lucida Console;fontSize=12;" parent="1" vertex="1">
          <mxGeometry x="-1290" y="370" width="40" height="20" as="geometry" />
        </mxCell>
        <mxCell id="6HOsOEwYccZ2VXURbwLA-27" value="&lt;font face=&quot;Lucida Console&quot;&gt;F&lt;/font&gt;" style="edgeStyle=orthogonalEdgeStyle;shape=connector;rounded=0;orthogonalLoop=1;jettySize=auto;html=1;exitX=1;exitY=0.5;exitDx=0;exitDy=0;exitPerimeter=0;entryX=0.5;entryY=0;entryDx=0;entryDy=0;strokeColor=default;align=center;verticalAlign=middle;fontFamily=Helvetica;fontSize=12;fontColor=default;labelBackgroundColor=default;endArrow=open;endFill=0;" parent="1" source="6HOsOEwYccZ2VXURbwLA-13" target="5qlxgYzfs1YS5cD4jpSk-1" edge="1">
          <mxGeometry x="-0.8182" y="10" relative="1" as="geometry">
            <mxPoint as="offset" />
          </mxGeometry>
        </mxCell>
        <mxCell id="5qlxgYzfs1YS5cD4jpSk-1" value="\(m\) の値&lt;div&gt;を出力&lt;/div&gt;" style="shape=parallelogram;perimeter=parallelogramPerimeter;whiteSpace=wrap;html=1;fixedSize=1;size=10;" vertex="1" parent="1">
          <mxGeometry x="-1310" y="310" width="80" height="30" as="geometry" />
        </mxCell>
        <mxCell id="5qlxgYzfs1YS5cD4jpSk-2" style="edgeStyle=orthogonalEdgeStyle;rounded=0;orthogonalLoop=1;jettySize=auto;html=1;exitX=0.5;exitY=1;exitDx=0;exitDy=0;entryX=0.5;entryY=0;entryDx=0;entryDy=0;entryPerimeter=0;endArrow=open;endFill=0;" edge="1" parent="1" source="5qlxgYzfs1YS5cD4jpSk-1" target="6HOsOEwYccZ2VXURbwLA-25">
          <mxGeometry relative="1" as="geometry" />
        </mxCell>
      </root>
    </mxGraphModel>
  </diagram>
</mxfile>
